<svg width="1177" height="414" viewBox="0 0 1177 414" fill="none" xmlns="http://www.w3.org/2000/svg">
<path d="M659 81.03C533.4 57.9463 482.667 -36.6082 473 -81H1615V385.114C1535.5 423.217 1335.3 451.923 1170.5 261.926C964.5 24.4305 816 109.885 659 81.03Z" stroke="#1877F2" stroke-width="2"/>
<path d="M217.294 -56.0418C71.2375 -76.8359 12.2411 -162.011 1 -202H1329V217.88C1236.55 252.203 1003.74 278.062 812.103 106.911C572.552 -107.027 399.865 -30.0493 217.294 -56.0418Z" stroke="#FBBC05"/>
<path d="M512 15.03C386.4 -8.05374 335.667 -102.608 326 -147H1468V319.114C1388.5 357.217 1188.3 385.923 1023.5 195.926C817.5 -41.5695 669 43.8846 512 15.03Z" stroke="white" stroke-width="3"/>
</svg>
