<?xml version="1.0" encoding="UTF-8"?>
<svg id="Capa_1" data-name="Capa 1" xmlns="http://www.w3.org/2000/svg" viewBox="0 0 863.96 248.08">
  <defs>
    <style>
      .cls-1 {
        fill: #fff;
        stroke-width: 0px;
      }
    </style>
  </defs>
  <g>
    <path class="cls-1" d="m198.29,162.19c0-.58-.32-.83-1.04-.83h-.61v1.72h.62c.65,0,1.03-.36,1.03-.88Z"/>
    <path class="cls-1" d="m150.81,168.09l32.44,5.58s9.27,9.27,17.19,17.2c15.28-18.02,24.5-41.35,24.5-66.83,0-57.12-46.3-103.42-103.42-103.42S18.1,66.92,18.1,124.04c0,25.48,9.22,48.8,24.5,66.83,7.92-7.93,17.19-17.2,17.19-17.2l36.82-6.33c17.05-2.97,21.31.87,21.34,6.51,0,.24-.2.44-.44.44h-10.63c-.24,0-.44.2-.44.44v6.29c0,.24.2.44.44.44h10.64c.24,0,.44.2.44.44,0,0,0,20.58,0,20.96,0,.52-.65.61-.85.06-2.27-6.22-9.88-12.85-23.82-10.5,0,0-24.25,4.19-42.23,7.29,18.47,17.21,43.24,27.74,70.48,27.74s52.01-10.53,70.48-27.74c-17.98-3.1-42.23-7.29-42.23-7.29-13.94-2.35-21.55,4.28-23.82,10.5-.2.55-.85.47-.85-.06v-1.93c0-6.94,6.18-13.29,13.55-20.66l12.17-12.18Zm46.58-9.38c2.52,0,4.56,1.91,4.56,4.56s-1.91,4.56-4.56,4.56-4.56-1.91-4.56-4.56,1.91-4.56,4.56-4.56Zm-52.83-41.49c8.3-8.3,10.31-17.92,3.7-23.64-.55-.48-.27-1.06.46-.74,8.23,3.75,14.72,17.38.61,31.5l-10.72,10.7c-7.29,7.29-10.82,10.76-12.64,19.6-.14.66-.89.66-.89,0v-10.83c0-6.94,6.19-13.29,13.56-20.66l5.93-5.93Zm-65.91,9.75c-2.59-8.37-.9-21.21,11.24-33.35l32.1-32.12c7.29-7.29,10.83-10.78,12.65-19.62.14-.66.89-.66.89,0v10.83c0,6.94-6.19,13.29-13.56,20.66l-27.69,27.68c-12.84,12.84-14.87,18.89-14.81,25.93,0,.75-.61.7-.83-.01Zm4.92,19.13c-7.18-8.78-4.74-22.43,9.38-36.55l29.08-29.05c7.29-7.29,10.82-10.83,12.64-19.67.14-.66.89-.66.89,0v10.9c0,6.94-6.19,13.29-13.56,20.66l-25.7,25.7c-5.42,5.42-16.8,16.8-12.05,27.54.31.71-.2,1.06-.68.47Zm14.94-11.18c-8.3,8.3-10.31,17.92-3.7,23.64.55.48.27,1.06-.46.74-8.23-3.75-14.72-17.38-.61-31.5l28.25-28.23c7.29-7.29,10.82-10.76,12.64-19.6.14-.66.89-.66.89,0v10.83c0,6.94-6.19,13.29-13.56,20.66l-23.45,23.46Zm26.53,38.86v-10.9c0-6.94,6.19-13.29,13.56-20.66l8.17-8.17c5.42-5.42,16.8-16.8,12.05-27.54-.31-.71.2-1.06.68-.47,7.18,8.78,4.74,22.43-9.38,36.55l-11.55,11.53c-7.29,7.29-10.82,10.83-12.64,19.67-.14.66-.89.66-.89,0Zm.92,18.95c-.14.66-.89.66-.89,0v-10.82c0-.24.2-.44.44-.44h5.36c-2.38,3.15-3.91,6.39-4.91,11.26Zm11.46-18.43h-10.03c2.46-4.22,6.61-8.44,11.24-13.06l10.16-10.15c12.84-12.84,14.87-18.89,14.81-25.93,0-.75.61-.7.83.01,2.59,8.37.9,21.21-11.24,33.35l-14.57,14.59c-.41.41-.8.8-1.19,1.19Z"/>
    <path class="cls-1" d="m197.39,167.18c2.13,0,3.85-1.63,3.85-3.9,0-2.15-1.6-3.9-3.85-3.9s-3.86,1.63-3.86,3.9c0,2.15,1.62,3.9,3.86,3.9Zm-1.7-6.61h1.59c1.35,0,1.96.53,1.96,1.6,0,.78-.47,1.22-.97,1.42l1.44,2.41h-1.07l-1.24-2.15h-.77v2.15h-.94v-5.43Z"/>
  </g>
  <g>
    <path class="cls-1" d="m344.67,193.79c0-4.18,3.57-7.68,7.81-7.68,2.19,0,4.17.93,5.6,2.4l-1.93,1.8c-.91-1.06-2.25-1.73-3.68-1.73-2.75,0-5.06,2.38-5.06,5.21s2.31,5.23,5.06,5.23c1.45,0,2.77-.67,3.7-1.73l1.9,1.78c-1.43,1.49-3.42,2.42-5.6,2.42-4.24,0-7.81-3.53-7.81-7.7Z"/>
    <path class="cls-1" d="m359.28,193.79c0-4.18,3.57-7.68,7.81-7.68s7.79,3.5,7.79,7.68-3.57,7.7-7.79,7.7-7.81-3.53-7.81-7.7Zm12.83,0c0-2.84-2.29-5.21-5.02-5.21s-5.06,2.38-5.06,5.21,2.31,5.23,5.06,5.23,5.02-2.38,5.02-5.23Z"/>
    <path class="cls-1" d="m386.45,201.22l-3.5-4.99h-2.88v4.99h-2.7v-14.86h6.47c3.18,0,5.56,2.04,5.56,4.93,0,2.25-1.45,3.98-3.59,4.65l3.72,5.28h-3.07Zm-6.38-7.49h3.46c1.84,0,3.12-.93,3.12-2.44s-1.28-2.44-3.12-2.44h-3.46v4.89Z"/>
    <path class="cls-1" d="m391.85,186.36h6.47c3.18,0,5.56,2.04,5.56,4.93s-2.38,4.93-5.56,4.93h-3.76v4.99h-2.7v-14.86Zm6.16,7.38c1.84,0,3.12-.93,3.12-2.44s-1.28-2.44-3.12-2.44h-3.46v4.89h3.46Z"/>
    <path class="cls-1" d="m405.44,193.79c0-4.18,3.57-7.68,7.81-7.68s7.79,3.5,7.79,7.68-3.57,7.7-7.79,7.7-7.81-3.53-7.81-7.7Zm12.83,0c0-2.84-2.29-5.21-5.02-5.21s-5.06,2.38-5.06,5.21,2.31,5.23,5.06,5.23,5.02-2.38,5.02-5.23Z"/>
    <path class="cls-1" d="m432.62,201.22l-3.5-4.99h-2.88v4.99h-2.7v-14.86h6.47c3.18,0,5.56,2.04,5.56,4.93,0,2.25-1.45,3.98-3.59,4.65l3.72,5.28h-3.07Zm-6.38-7.49h3.46c1.84,0,3.12-.93,3.12-2.44s-1.28-2.44-3.12-2.44h-3.46v4.89Z"/>
    <path class="cls-1" d="m448.2,198.54h-7.18l-1.13,2.68h-3.01l6.21-14.86h3.01l6.21,14.86h-2.99l-1.13-2.68Zm-.97-2.34l-2.62-6.25-2.62,6.25h5.23Z"/>
    <path class="cls-1" d="m453.72,193.79c0-4.18,3.57-7.68,7.81-7.68,2.19,0,4.17.93,5.6,2.4l-1.93,1.8c-.91-1.06-2.25-1.73-3.68-1.73-2.75,0-5.06,2.38-5.06,5.21s2.31,5.23,5.06,5.23c1.45,0,2.77-.67,3.7-1.73l1.9,1.78c-1.43,1.49-3.42,2.42-5.6,2.42-4.24,0-7.81-3.53-7.81-7.7Z"/>
    <path class="cls-1" d="m469.26,186.36h2.68v14.86h-2.68v-14.86Z"/>
    <path class="cls-1" d="m474.5,193.79c0-4.18,3.57-7.68,7.81-7.68s7.79,3.5,7.79,7.68-3.57,7.7-7.79,7.7-7.81-3.53-7.81-7.7Zm12.83,0c0-2.84-2.29-5.21-5.02-5.21s-5.06,2.38-5.06,5.21,2.31,5.23,5.06,5.23,5.02-2.38,5.02-5.23Zm-3.48-11.96l2.47.48-3.16,2.81h-1.84l2.53-3.29Z"/>
    <path class="cls-1" d="m492.78,186.36h2.7l7.85,10.45v-10.45h2.68v14.86h-2.68l-7.85-10.45v10.45h-2.7v-14.86Z"/>
    <path class="cls-1" d="m515.47,194.89v-8.52h2.7v8.44c0,2.47,1.6,4.24,3.85,4.24s3.87-1.78,3.87-4.24v-8.44h2.68v8.52c0,3.87-2.7,6.6-6.55,6.6s-6.55-2.73-6.55-6.6Z"/>
    <path class="cls-1" d="m531.89,186.36h2.7l7.85,10.45v-10.45h2.68v14.86h-2.68l-7.85-10.45v10.45h-2.7v-14.86Z"/>
    <path class="cls-1" d="m548.45,186.36h2.68v14.86h-2.68v-14.86Z"/>
    <path class="cls-1" d="m568.57,186.36l-6.21,14.86h-3.01l-6.21-14.86h2.98l4.72,11.27,4.71-11.27h3.01Z"/>
    <path class="cls-1" d="m573.25,188.83v3.59h7.68v2.47h-7.68v3.87h8.48v2.47h-11.18v-14.86h11.18v2.47h-8.48Z"/>
    <path class="cls-1" d="m593.41,201.22l-3.5-4.99h-2.88v4.99h-2.7v-14.86h6.47c3.18,0,5.56,2.04,5.56,4.93,0,2.25-1.45,3.98-3.59,4.65l3.72,5.28h-3.07Zm-6.38-7.49h3.46c1.84,0,3.12-.93,3.12-2.44s-1.28-2.44-3.12-2.44h-3.46v4.89Z"/>
    <path class="cls-1" d="m597.94,199.06l1.56-1.93c1.36,1.23,2.94,2.01,4.89,2.01,1.84,0,2.79-.91,2.79-1.97,0-1.23-1.06-1.64-3.44-2.21-3.07-.71-5.21-1.6-5.21-4.39,0-2.6,2.21-4.5,5.34-4.5,2.36,0,4.13.8,5.62,2.07l-1.47,1.99c-1.3-1.12-2.79-1.75-4.26-1.75s-2.51.91-2.51,1.94c0,1.21,1.1,1.64,3.46,2.18,3.09.69,5.17,1.69,5.17,4.39s-2.03,4.54-5.58,4.54c-2.55,0-4.71-.87-6.36-2.4Z"/>
    <path class="cls-1" d="m612.4,186.36h2.68v14.86h-2.68v-14.86Z"/>
    <path class="cls-1" d="m622.2,188.83h-4.76v-2.47h12.2v2.47h-4.76v12.4h-2.68v-12.4Z"/>
    <path class="cls-1" d="m640.89,198.54h-7.18l-1.13,2.68h-3.01l6.21-14.86h3.01l6.21,14.86h-2.99l-1.13-2.68Zm-.97-2.34l-2.62-6.25-2.62,6.25h5.23Z"/>
    <path class="cls-1" d="m656.07,201.22l-3.5-4.99h-2.88v4.99h-2.7v-14.86h6.47c3.18,0,5.56,2.04,5.56,4.93,0,2.25-1.45,3.98-3.59,4.65l3.72,5.28h-3.07Zm-6.38-7.49h3.46c1.84,0,3.12-.93,3.12-2.44s-1.28-2.44-3.12-2.44h-3.46v4.89Z"/>
    <path class="cls-1" d="m661.5,186.36h2.68v14.86h-2.68v-14.86Z"/>
    <path class="cls-1" d="m677.49,198.54h-7.18l-1.13,2.68h-3.01l6.21-14.86h3.01l6.21,14.86h-2.99l-1.13-2.68Zm-.97-2.34l-2.62-6.25-2.62,6.25h5.23Z"/>
    <path class="cls-1" d="m699.89,198.54h-7.18l-1.13,2.68h-3.01l6.21-14.86h3.01l6.21,14.86h-2.99l-1.13-2.68Zm-.97-2.34l-2.62-6.25-2.62,6.25h5.23Z"/>
    <path class="cls-1" d="m706.17,186.36h5.23c4.91,0,8.37,3.07,8.37,7.42s-3.46,7.44-8.37,7.44h-5.23v-14.86Zm5.51,12.42c3.14,0,5.34-2.07,5.34-4.99s-2.21-4.98-5.34-4.98h-2.81v9.97h2.81Z"/>
    <path class="cls-1" d="m736.77,186.36l-6.21,14.86h-3.01l-6.21-14.86h2.98l4.72,11.27,4.71-11.27h3.01Z"/>
    <path class="cls-1" d="m741.45,188.83v3.59h7.68v2.47h-7.68v3.87h8.48v2.47h-11.18v-14.86h11.18v2.47h-8.48Z"/>
    <path class="cls-1" d="m752.72,186.36h2.71l7.85,10.45v-10.45h2.68v14.86h-2.68l-7.85-10.45v10.45h-2.71v-14.86Z"/>
    <path class="cls-1" d="m773.24,188.83h-4.76v-2.47h12.2v2.47h-4.76v12.4h-2.68v-12.4Z"/>
    <path class="cls-1" d="m783.04,186.36h2.68v14.86h-2.68v-14.86Z"/>
    <path class="cls-1" d="m787.98,199.06l1.56-1.93c1.36,1.23,2.94,2.01,4.89,2.01,1.84,0,2.79-.91,2.79-1.97,0-1.23-1.06-1.64-3.44-2.21-3.07-.71-5.21-1.6-5.21-4.39,0-2.6,2.21-4.5,5.34-4.5,2.36,0,4.13.8,5.62,2.07l-1.47,1.99c-1.3-1.12-2.79-1.75-4.26-1.75s-2.51.91-2.51,1.94c0,1.21,1.1,1.64,3.46,2.18,3.09.69,5.17,1.69,5.17,4.39s-2.03,4.54-5.58,4.54c-2.55,0-4.71-.87-6.36-2.4Z"/>
    <path class="cls-1" d="m806.39,188.83h-4.76v-2.47h12.2v2.47h-4.76v12.4h-2.68v-12.4Z"/>
    <path class="cls-1" d="m825.09,198.54h-7.18l-1.13,2.68h-3.01l6.21-14.86h3.01l6.21,14.86h-2.99l-1.13-2.68Zm-.97-2.34l-2.62-6.25-2.62,6.25h5.23Z"/>
    <path class="cls-1" d="m528.71,219.76c0-4.18,3.57-7.68,7.81-7.68,2.19,0,4.17.93,5.6,2.4l-1.93,1.8c-.91-1.06-2.25-1.73-3.68-1.73-2.75,0-5.06,2.38-5.06,5.21s2.31,5.23,5.06,5.23c1.45,0,2.77-.67,3.7-1.73l1.9,1.78c-1.43,1.49-3.42,2.42-5.6,2.42-4.24,0-7.81-3.53-7.81-7.7Z"/>
    <path class="cls-1" d="m543.32,219.76c0-4.18,3.57-7.68,7.81-7.68s7.79,3.5,7.79,7.68-3.57,7.7-7.79,7.7-7.81-3.53-7.81-7.7Zm12.83,0c0-2.84-2.29-5.21-5.02-5.21s-5.06,2.38-5.06,5.21,2.31,5.23,5.06,5.23,5.02-2.38,5.02-5.23Z"/>
    <path class="cls-1" d="m571.6,224.73v2.47h-10.32v-14.86h2.68v12.4h7.63Z"/>
    <path class="cls-1" d="m573.23,219.76c0-4.18,3.57-7.68,7.81-7.68s7.79,3.5,7.79,7.68-3.57,7.7-7.79,7.7-7.81-3.53-7.81-7.7Zm12.83,0c0-2.84-2.29-5.21-5.02-5.21s-5.06,2.38-5.06,5.21,2.31,5.23,5.06,5.23,5.02-2.38,5.02-5.23Z"/>
    <path class="cls-1" d="m591.51,212.33h2.71l4.89,9.06,4.91-9.06h2.68v14.86h-2.68v-9.93l-4.91,9.06-4.89-9.06v9.93h-2.71v-14.86Z"/>
    <path class="cls-1" d="m610.19,212.33h7.29c2.57,0,4.39,1.56,4.39,3.72,0,1.51-.78,2.57-2.1,3.29,1.71.82,2.73,2.18,2.73,3.81,0,2.38-1.97,4.04-4.74,4.04h-7.57v-14.86Zm6.64,6.08c1.32,0,2.27-.78,2.27-1.86s-.95-1.88-2.27-1.88h-3.96v3.74h3.96Zm.39,6.45c1.47,0,2.51-.89,2.51-2.12s-1.04-2.12-2.51-2.12h-4.35v4.24h4.35Z"/>
    <path class="cls-1" d="m625.06,212.33h2.68v14.86h-2.68v-14.86Z"/>
    <path class="cls-1" d="m641.05,224.52h-7.18l-1.13,2.68h-3.01l6.21-14.86h3.01l6.21,14.86h-2.99l-1.13-2.68Zm-.97-2.34l-2.62-6.25-2.62,6.25h5.23Z"/>
  </g>
  <g>
    <path class="cls-1" d="m397.75,107.49c0,7.02-1.82,12.19-5.56,15.81-3.8,3.67-8.3,5.46-13.74,5.46s-9.94-1.79-13.74-5.46c-3.74-3.62-5.56-8.79-5.56-15.81V23.25h-31.13v84.24c0,15.23,5,27.6,14.87,36.78,9.74,9.06,21.71,13.66,35.57,13.66s25.83-4.6,35.57-13.66c9.86-9.18,14.86-21.55,14.86-36.78V23.25h-31.13v84.24Z"/>
    <polygon class="cls-1" points="542.31 102.38 488.59 23.25 457.15 23.25 457.15 155.46 488.28 155.46 488.28 76.33 542 155.46 573.45 155.46 573.45 23.25 542.31 23.25 542.31 102.38"/>
    <path class="cls-1" d="m639.42,23.25l-53.03,132.21h32.24l12.14-30.69h43.58l12.14,30.69h32.23l-52.85-132.21h-26.46Zm24,73.51h-21.68l10.89-27.47,10.79,27.47Z"/>
    <path class="cls-1" d="m816.01,117.33c-3.28,3.46-7.2,6.24-11.67,8.26-4.39,1.99-9.22,3-14.36,3s-9.85-1.01-14.3-3.01c-4.52-2.02-8.53-4.84-11.92-8.37-3.4-3.54-6.1-7.76-8.05-12.55-1.94-4.78-2.92-10.01-2.92-15.56s.98-10.62,2.93-15.4c1.95-4.79,4.65-9.02,8.05-12.55,3.38-3.52,7.39-6.34,11.92-8.37,4.46-1.99,9.32-3.01,14.46-3.01s9.75,1.01,14.09,2.99c4.42,2.02,8.32,4.81,11.61,8.28l3.22,3.4,26.79-15.27-4.76-5.49c-6.21-7.17-13.79-12.86-22.5-16.93-8.75-4.07-18.32-6.14-28.45-6.14-9.42,0-18.41,1.82-26.73,5.41-8.26,3.56-15.57,8.49-21.71,14.63-6.14,6.14-11.06,13.45-14.63,21.71-3.59,8.32-5.41,17.31-5.41,26.73s1.82,18.43,5.41,26.8c3.57,8.33,8.49,15.66,14.64,21.8,6.14,6.14,13.44,11.07,21.71,14.63,8.32,3.59,17.31,5.41,26.73,5.41,10.13,0,19.7-2.06,28.45-6.14,8.7-4.05,16.26-9.68,22.47-16.72l4.79-5.43-26.59-15.58-3.26,3.44Z"/>
  </g>
  <path class="cls-1" d="m274.56,227.46c-1.15,0-2.08-.93-2.08-2.08V22.7c0-1.15.93-2.08,2.08-2.08s2.08.93,2.08,2.08v202.68c0,1.15-.93,2.08-2.08,2.08Z"/>
</svg>